<svg width="500" height="750" viewBox="0 0 500 750" fill="none" xmlns="http://www.w3.org/2000/svg">
<path d="M421.875 510.643V553.819C421.875 557.963 420.229 561.938 417.299 564.868C414.368 567.798 410.394 569.444 406.25 569.444H109.375C105.231 569.444 101.257 567.798 98.3265 564.868C95.3962 561.938 93.75 557.963 93.75 553.819V510.643C93.9915 506.049 95.4379 501.599 97.9437 497.741C100.45 493.883 103.927 490.753 108.026 488.664L188.256 452.963C194.775 464.321 204.103 473.813 215.345 480.53C226.587 487.246 239.366 490.962 252.457 491.319H263.168C276.259 490.961 289.038 487.246 300.279 480.529C311.521 473.813 320.848 464.32 327.367 452.963L407.599 488.664C411.698 490.753 415.175 493.883 417.681 497.741C420.187 501.599 421.633 506.049 421.875 510.643ZM139.204 413.576C162.672 423.448 187.493 429.731 212.832 432.213C216.114 440.136 221.582 446.962 228.598 451.895C235.613 456.827 243.887 459.662 252.453 460.069H263.172C271.727 459.662 279.99 456.833 287 451.913C294.01 446.992 299.478 440.181 302.767 432.274C326.316 429.872 349.433 424.301 371.49 415.712C373.632 414.888 375.563 413.599 377.146 411.937C378.728 410.276 379.922 408.284 380.64 406.105C381.359 403.926 381.585 401.614 381.302 399.337C381.018 397.06 380.233 394.875 379.002 392.938C336.287 331.243 383.901 210.069 296.875 210.069C250 163.194 171.875 194.444 156.25 256.944C143.195 309.163 154.133 344.576 131.743 392.961C130.002 396.685 129.809 400.947 131.208 404.812C132.607 408.678 135.483 411.83 139.204 413.576Z" fill="#B5B5B5"/>
</svg>
