<svg width="500" height="750" viewBox="0 0 500 750" fill="none" xmlns="http://www.w3.org/2000/svg">
<path d="M437.5 503.698V546.875C437.5 551.019 435.854 554.993 432.924 557.924C429.993 560.854 426.019 562.5 421.875 562.5H93.75C89.606 562.5 85.6317 560.854 82.7015 557.924C79.7712 554.993 78.125 551.019 78.125 546.875V503.698C78.3432 499.147 79.8183 494.745 82.3865 490.981C84.9548 487.217 88.5158 484.239 92.6742 482.376L172.925 440.109C179.313 453.293 189.263 464.425 201.649 472.248C214.034 480.071 228.362 484.272 243.011 484.375H272.614C287.263 484.272 301.59 480.071 313.976 472.248C326.361 464.424 336.31 453.291 342.697 440.107L422.951 482.376C427.109 484.239 430.67 487.217 433.238 490.981C435.807 494.745 437.282 499.147 437.5 503.698ZM166.325 345.715C170.387 355.417 177.602 363.465 186.805 368.558L197.208 416.242C199.488 426.692 205.274 436.049 213.604 442.758C221.935 449.467 232.31 453.125 243.006 453.125H272.619C283.315 453.125 293.69 449.467 302.02 442.758C310.351 436.049 316.136 426.693 318.416 416.243L328.82 368.559C338.022 363.466 345.238 355.417 349.3 345.715L353.675 333.974C354.896 331.547 355.609 328.896 355.768 326.183C355.927 323.471 355.529 320.755 354.6 318.202C353.67 315.649 352.228 313.313 350.362 311.338C348.496 309.363 346.246 307.79 343.75 306.717V265.625C343.75 218.75 312.5 187.5 257.812 187.5C203.125 187.5 171.875 218.75 171.875 265.625V306.717C169.379 307.79 167.129 309.363 165.263 311.338C163.397 313.313 161.955 315.648 161.026 318.201C160.096 320.754 159.699 323.47 159.858 326.183C160.017 328.895 160.729 331.546 161.95 333.973L166.325 345.715Z" fill="#B5B5B5"/>
</svg>
